<?xml version="1.0" encoding="UTF-8" standalone="no"?>
<!-- Created with Inkscape (http://www.inkscape.org/) -->

<svg
   xmlns:dc="http://purl.org/dc/elements/1.1/"
   xmlns:cc="http://creativecommons.org/ns#"
   xmlns:rdf="http://www.w3.org/1999/02/22-rdf-syntax-ns#"
   xmlns:svg="http://www.w3.org/2000/svg"
   xmlns="http://www.w3.org/2000/svg"
   xmlns:sodipodi="http://sodipodi.sourceforge.net/DTD/sodipodi-0.dtd"
   xmlns:inkscape="http://www.inkscape.org/namespaces/inkscape"
   width="90"
   height="380"
   viewBox="0 0 23.812501 100.54167"
   version="1.1"
   id="svg8"
   inkscape:version="0.92.3 (2405546, 2018-03-11)"
   sodipodi:docname="MyModule.svg">
  <defs
     id="defs2" />
  <sodipodi:namedview
     id="base"
     pagecolor="#ffffff"
     bordercolor="#666666"
     borderopacity="1.0"
     inkscape:pageopacity="0.0"
     inkscape:pageshadow="2"
     inkscape:zoom="1.4"
     inkscape:cx="67.052049"
     inkscape:cy="170.63765"
     inkscape:document-units="mm"
     inkscape:current-layer="layer3"
     showgrid="false"
     units="px"
     inkscape:snap-bbox="true"
     inkscape:snap-page="true"
     inkscape:bbox-nodes="true"
     inkscape:snap-bbox-edge-midpoints="true"
     inkscape:window-width="1920"
     inkscape:window-height="1017"
     inkscape:window-x="-8"
     inkscape:window-y="-8"
     inkscape:window-maximized="1" />
  <metadata
     id="metadata5">
    <rdf:RDF>
      <cc:Work
         rdf:about="">
        <dc:format>image/svg+xml</dc:format>
        <dc:type
           rdf:resource="http://purl.org/dc/dcmitype/StillImage" />
        <dc:title />
      </cc:Work>
    </rdf:RDF>
  </metadata>
  <g
     inkscape:label="Layer 1"
     inkscape:groupmode="layer"
     id="layer1"
     transform="translate(0,-196.45832)"
     sodipodi:insensitive="true">
    <path
       style="opacity:1;vector-effect:none;fill:#333333;fill-opacity:1;fill-rule:evenodd;stroke:none;stroke-width:0.48607069;stroke-linecap:butt;stroke-linejoin:round;stroke-miterlimit:4;stroke-dasharray:none;stroke-dashoffset:0;stroke-opacity:1;paint-order:normal"
       d="M 0,196.45831 H 23.8125 V 296.99999 H 0 Z"
       id="rect817"
       inkscape:connector-curvature="0" />
  </g>
  <g
     inkscape:groupmode="layer"
     id="layer3"
     inkscape:label="Layer 3">
    <g
       aria-label="ENVELOPE
FOLLOWER"
       transform="scale(0.95496679,1.0471568)"
       style="font-style:normal;font-variant:normal;font-weight:bold;font-stretch:normal;font-size:4.06396198px;line-height:1;font-family:sans-serif;-inkscape-font-specification:'sans-serif Bold';text-align:center;letter-spacing:0px;word-spacing:0px;text-anchor:middle;fill:#d6d6d6;fill-opacity:1;stroke:none;stroke-width:0.30616495"
       id="text70">
      <path
         d="M 2.8237397,7.208683 H 0.68658785 V 4.2539763 H 2.8237397 V 4.8254709 H 1.444612 V 5.3354505 H 2.7245219 V 5.9069452 H 1.444612 v 0.7302432 h 1.3791277 z"
         style="font-style:normal;font-variant:normal;font-weight:bold;font-stretch:normal;font-size:4.06396198px;line-height:1;font-family:sans-serif;-inkscape-font-specification:'sans-serif Bold';text-align:center;text-anchor:middle;fill:#d6d6d6;fill-opacity:1;stroke-width:0.30616495"
         id="path4768" />
      <path
         d="M 6.1515055,7.208683 H 5.4172936 L 4.1631804,5.1806707 V 7.208683 H 3.4646869 V 4.2539763 h 0.9108196 l 1.0775056,1.692656 v -1.692656 h 0.6984934 z"
         style="font-style:normal;font-variant:normal;font-weight:bold;font-stretch:normal;font-size:4.06396198px;line-height:1;font-family:sans-serif;-inkscape-font-specification:'sans-serif Bold';text-align:center;text-anchor:middle;fill:#d6d6d6;fill-opacity:1;stroke-width:0.30616495"
         id="path4770" />
      <path
         d="M 9.5884109,4.2539763 8.5109054,7.208683 H 7.6576321 L 6.5801266,4.2539763 H 7.3798222 L 8.0941905,6.3296131 8.8085588,4.2539763 Z"
         style="font-style:normal;font-variant:normal;font-weight:bold;font-stretch:normal;font-size:4.06396198px;line-height:1;font-family:sans-serif;-inkscape-font-specification:'sans-serif Bold';text-align:center;text-anchor:middle;fill:#d6d6d6;fill-opacity:1;stroke-width:0.30616495"
         id="path4772" />
      <path
         d="M 12.150215,7.208683 H 10.013063 V 4.2539763 h 2.137152 v 0.5714946 h -1.379128 v 0.5099796 h 1.27991 v 0.5714947 h -1.27991 v 0.7302432 h 1.379128 z"
         style="font-style:normal;font-variant:normal;font-weight:bold;font-stretch:normal;font-size:4.06396198px;line-height:1;font-family:sans-serif;-inkscape-font-specification:'sans-serif Bold';text-align:center;text-anchor:middle;fill:#d6d6d6;fill-opacity:1;stroke-width:0.30616495"
         id="path4774" />
      <path
         d="M 14.922361,7.208683 H 12.791162 V 4.2539763 h 0.761993 v 2.3832121 h 1.369206 z"
         style="font-style:normal;font-variant:normal;font-weight:bold;font-stretch:normal;font-size:4.06396198px;line-height:1;font-family:sans-serif;-inkscape-font-specification:'sans-serif Bold';text-align:center;text-anchor:middle;fill:#d6d6d6;fill-opacity:1;stroke-width:0.30616495"
         id="path4776" />
      <path
         d="m 18.252111,5.7323218 q 0,0.7064309 -0.404809,1.1231458 -0.404809,0.4147305 -1.119177,0.4147305 -0.712384,0 -1.117193,-0.4147305 -0.404808,-0.4167149 -0.404808,-1.1231458 0,-0.7123839 0.404808,-1.1251301 0.404809,-0.4147305 1.117193,-0.4147305 0.7104,0 1.117193,0.4147305 0.406793,0.4127462 0.406793,1.1251301 z m -1.010038,0.7481024 q 0.111124,-0.1349362 0.164702,-0.317497 0.05358,-0.1845452 0.05358,-0.4325897 0,-0.2659038 -0.06151,-0.4524333 -0.06151,-0.1865295 -0.160733,-0.3016222 -0.101202,-0.1190614 -0.234154,-0.172639 -0.130968,-0.053578 -0.273842,-0.053578 -0.144858,0 -0.273841,0.051593 -0.126999,0.051593 -0.234154,0.1706546 -0.09922,0.111124 -0.162717,0.3075753 -0.06151,0.1944669 -0.06151,0.4524332 0,0.2639194 0.05953,0.4504489 0.06151,0.1845452 0.160733,0.3016222 0.09922,0.117077 0.232169,0.172639 0.132952,0.055562 0.279794,0.055562 0.146843,0 0.279795,-0.055562 0.132952,-0.057546 0.232169,-0.1766077 z"
         style="font-style:normal;font-variant:normal;font-weight:bold;font-stretch:normal;font-size:4.06396198px;line-height:1;font-family:sans-serif;-inkscape-font-specification:'sans-serif Bold';text-align:center;text-anchor:middle;fill:#d6d6d6;fill-opacity:1;stroke-width:0.30616495"
         id="path4778" />
      <path
         d="m 21.270317,5.1866238 q 0,0.1984356 -0.06945,0.3889339 -0.06945,0.1885138 -0.198436,0.317497 -0.176607,0.1746234 -0.394886,0.2639194 -0.216295,0.089296 -0.539745,0.089296 H 19.593535 V 7.208683 H 18.831543 V 4.2539763 h 1.254113 q 0.281778,0 0.474261,0.049609 0.194467,0.047625 0.343294,0.144858 0.178592,0.117077 0.271856,0.2996378 0.09525,0.1825608 0.09525,0.4385428 z m -0.78779,0.017859 q 0,-0.1250144 -0.06747,-0.2143105 -0.06747,-0.09128 -0.156764,-0.1269988 -0.119062,-0.047624 -0.23217,-0.051593 -0.113108,-0.00595 -0.301622,-0.00595 h -0.130968 v 0.8850229 h 0.21828 q 0.194467,0 0.319481,-0.023812 0.126999,-0.023812 0.212326,-0.095249 0.07342,-0.0635 0.105171,-0.1508111 0.03373,-0.089296 0.03373,-0.2162949 z"
         style="font-style:normal;font-variant:normal;font-weight:bold;font-stretch:normal;font-size:4.06396198px;line-height:1;font-family:sans-serif;-inkscape-font-specification:'sans-serif Bold';text-align:center;text-anchor:middle;fill:#d6d6d6;fill-opacity:1;stroke-width:0.30616495"
         id="path4780" />
      <path
         d="M 23.94523,7.208683 H 21.808078 V 4.2539763 h 2.137152 v 0.5714946 h -1.379128 v 0.5099796 h 1.27991 v 0.5714947 h -1.27991 v 0.7302432 h 1.379128 z"
         style="font-style:normal;font-variant:normal;font-weight:bold;font-stretch:normal;font-size:4.06396198px;line-height:1;font-family:sans-serif;-inkscape-font-specification:'sans-serif Bold';text-align:center;text-anchor:middle;fill:#d6d6d6;fill-opacity:1;stroke-width:0.30616495"
         id="path4782" />
      <path
         d="M 2.1173088,8.8894329 H 0.75802468 V 9.4390996 H 2.018091 V 10.010594 H 0.75802468 v 1.262051 H 5.2433461e-7 V 8.3179383 H 2.1173088 Z"
         style="font-style:normal;font-variant:normal;font-weight:bold;font-stretch:normal;font-size:4.06396198px;line-height:1;font-family:sans-serif;-inkscape-font-specification:'sans-serif Bold';text-align:center;text-anchor:middle;fill:#d6d6d6;fill-opacity:1;stroke-width:0.30616495"
         id="path4784" />
      <path
         d="m 5.5165114,9.7962838 q 0,0.7064312 -0.4048087,1.1231462 -0.4048088,0.41473 -1.1191771,0.41473 -0.7123839,0 -1.1171926,-0.41473 -0.4048088,-0.416715 -0.4048088,-1.1231462 0,-0.712384 0.4048088,-1.1251301 0.4048087,-0.4147305 1.1171926,-0.4147305 0.7103996,0 1.1171927,0.4147305 0.4067931,0.4127461 0.4067931,1.1251301 z M 4.5064739,10.544386 q 0.111124,-0.134936 0.1647016,-0.317497 0.053578,-0.184545 0.053578,-0.4325895 0,-0.2659038 -0.061515,-0.4524333 Q 4.6017231,9.1553367 4.5025052,9.040244 4.4013031,8.9211826 4.2683512,8.867605 4.1373836,8.8140274 3.99451,8.8140274 q -0.144858,0 -0.2738412,0.051593 -0.1269988,0.051593 -0.2341541,0.1706547 -0.099218,0.111124 -0.1627172,0.3075752 -0.061515,0.194467 -0.061515,0.4524333 0,0.2639192 0.059531,0.4504492 0.061515,0.184545 0.1607328,0.301622 0.099218,0.117077 0.2321697,0.172639 0.1329519,0.05556 0.2797943,0.05556 0.1468424,0 0.2797942,-0.05556 0.1329519,-0.05755 0.2321697,-0.176608 z"
         style="font-style:normal;font-variant:normal;font-weight:bold;font-stretch:normal;font-size:4.06396198px;line-height:1;font-family:sans-serif;-inkscape-font-specification:'sans-serif Bold';text-align:center;text-anchor:middle;fill:#d6d6d6;fill-opacity:1;stroke-width:0.30616495"
         id="path4786" />
      <path
         d="M 8.2271423,11.272645 H 6.0959435 V 8.3179383 H 6.8579364 V 10.70115 h 1.3692059 z"
         style="font-style:normal;font-variant:normal;font-weight:bold;font-stretch:normal;font-size:4.06396198px;line-height:1;font-family:sans-serif;-inkscape-font-specification:'sans-serif Bold';text-align:center;text-anchor:middle;fill:#d6d6d6;fill-opacity:1;stroke-width:0.30616495"
         id="path4788" />
      <path
         d="M 10.814743,11.272645 H 8.6835447 V 8.3179383 H 9.4455376 V 10.70115 h 1.3692054 z"
         style="font-style:normal;font-variant:normal;font-weight:bold;font-stretch:normal;font-size:4.06396198px;line-height:1;font-family:sans-serif;-inkscape-font-specification:'sans-serif Bold';text-align:center;text-anchor:middle;fill:#d6d6d6;fill-opacity:1;stroke-width:0.30616495"
         id="path4790" />
      <path
         d="m 14.144494,9.7962838 q 0,0.7064312 -0.404809,1.1231462 -0.404809,0.41473 -1.119177,0.41473 -0.712384,0 -1.117193,-0.41473 -0.404809,-0.416715 -0.404809,-1.1231462 0,-0.712384 0.404809,-1.1251301 0.404809,-0.4147305 1.117193,-0.4147305 0.710399,0 1.117192,0.4147305 0.406794,0.4127461 0.406794,1.1251301 z m -1.010038,0.7481022 q 0.111124,-0.134936 0.164702,-0.317497 0.05358,-0.184545 0.05358,-0.4325895 0,-0.2659038 -0.06151,-0.4524333 -0.06151,-0.1865295 -0.160733,-0.3016222 -0.101202,-0.1190614 -0.234154,-0.172639 -0.130967,-0.053578 -0.273841,-0.053578 -0.144858,0 -0.273841,0.051593 -0.126999,0.051593 -0.234154,0.1706547 -0.09922,0.111124 -0.162717,0.3075752 -0.06151,0.194467 -0.06151,0.4524333 0,0.2639192 0.05953,0.4504492 0.06151,0.184545 0.160733,0.301622 0.09922,0.117077 0.23217,0.172639 0.132952,0.05556 0.279794,0.05556 0.146843,0 0.279794,-0.05556 0.132952,-0.05755 0.23217,-0.176608 z"
         style="font-style:normal;font-variant:normal;font-weight:bold;font-stretch:normal;font-size:4.06396198px;line-height:1;font-family:sans-serif;-inkscape-font-specification:'sans-serif Bold';text-align:center;text-anchor:middle;fill:#d6d6d6;fill-opacity:1;stroke-width:0.30616495"
         id="path4792" />
      <path
         d="M 18.801778,8.3179383 18.006051,11.272645 H 17.162699 L 16.632876,9.3478193 16.116943,11.272645 H 15.273592 L 14.477865,8.3179383 h 0.795727 l 0.454418,2.0339657 0.543713,-2.0339657 h 0.760009 l 0.517917,2.0339657 0.476245,-2.0339657 z"
         style="font-style:normal;font-variant:normal;font-weight:bold;font-stretch:normal;font-size:4.06396198px;line-height:1;font-family:sans-serif;-inkscape-font-specification:'sans-serif Bold';text-align:center;text-anchor:middle;fill:#d6d6d6;fill-opacity:1;stroke-width:0.30616495"
         id="path4794" />
      <path
         d="M 21.448909,11.272645 H 19.311757 V 8.3179383 h 2.137152 v 0.5714946 h -1.379128 v 0.5099796 h 1.27991 v 0.5714947 h -1.27991 V 10.70115 h 1.379128 z"
         style="font-style:normal;font-variant:normal;font-weight:bold;font-stretch:normal;font-size:4.06396198px;line-height:1;font-family:sans-serif;-inkscape-font-specification:'sans-serif Bold';text-align:center;text-anchor:middle;fill:#d6d6d6;fill-opacity:1;stroke-width:0.30616495"
         id="path4796" />
      <path
         d="m 23.746793,9.2228048 q 0,-0.111124 -0.04564,-0.1904982 -0.04564,-0.079374 -0.156764,-0.1250145 -0.07739,-0.03175 -0.180576,-0.037703 -0.103187,-0.00794 -0.240108,-0.00794 H 22.84788 v 0.795727 h 0.234154 q 0.182561,0 0.305591,-0.017859 0.12303,-0.017859 0.206373,-0.081359 0.07937,-0.061515 0.115093,-0.1349362 0.0377,-0.075406 0.0377,-0.20042 z m 1.18863,2.0498402 H 24.00476 L 23.199111,10.189186 H 22.84788 v 1.083459 H 22.089856 V 8.3179383 h 1.277925 q 0.261935,0 0.450449,0.029765 0.188514,0.029765 0.353216,0.1289832 0.166686,0.099218 0.263919,0.2579663 0.09922,0.1567642 0.09922,0.3948869 0,0.3274189 -0.152796,0.5337919 -0.150811,0.2063731 -0.432589,0.3432941 z"
         style="font-style:normal;font-variant:normal;font-weight:bold;font-stretch:normal;font-size:4.06396198px;line-height:1;font-family:sans-serif;-inkscape-font-specification:'sans-serif Bold';text-align:center;text-anchor:middle;fill:#d6d6d6;fill-opacity:1;stroke-width:0.30616495"
         id="path4798" />
    </g>
    <g
       aria-label="OFFSET"
       transform="scale(0.79491125,1.2580021)"
       style="font-style:normal;font-variant:normal;font-weight:bold;font-stretch:normal;font-size:16.82562256px;line-height:1.25;font-family:sans-serif;-inkscape-font-specification:'sans-serif Bold';letter-spacing:0px;word-spacing:0px;fill:#d6d6d6;fill-opacity:1;stroke:none;stroke-width:0.4206405"
       id="text70-3">
      <path
         d="m 2.5753148,29.278705 q 0,0.597272 -0.3422568,0.949595 -0.3422568,0.350645 -0.9462394,0.350645 -0.60230495,0 -0.94456178,-0.350645 Q 0,29.875977 0,29.278705 0,28.6764 0.34225682,28.327432 0.68451365,27.976787 1.2868186,27.976787 q 0.6006271,0 0.9445617,0.350645 0.3439345,0.348968 0.3439345,0.951273 z m -0.8539643,0.632504 q 0.093953,-0.114086 0.1392516,-0.268437 0.045299,-0.156029 0.045299,-0.365745 0,-0.224816 -0.05201,-0.382522 -0.05201,-0.157707 -0.1358961,-0.255015 -0.085564,-0.100664 -0.197972,-0.145963 -0.1107302,-0.0453 -0.2315267,-0.0453 -0.1224743,0 -0.2315267,0.04362 -0.10737468,0.04362 -0.19797208,0.144284 -0.0838865,0.09395 -0.13757382,0.260048 -0.0520096,0.164418 -0.0520096,0.382523 0,0.223138 0.0503319,0.380844 0.0520096,0.156029 0.13589609,0.255015 0.0838865,0.09899 0.19629434,0.145963 0.1124079,0.04698 0.2365599,0.04698 0.124152,0 0.2365598,-0.04698 0.1124079,-0.04865 0.1962944,-0.149318 z"
         style="font-style:normal;font-variant:normal;font-weight:bold;font-stretch:normal;font-size:3.4359901px;font-family:sans-serif;-inkscape-font-specification:'sans-serif Bold';fill:#d6d6d6;fill-opacity:1;stroke-width:0.4206405"
         id="path4801" />
      <path
         d="M 4.8553492,28.511982 H 3.7061044 v 0.464731 H 4.7714627 V 29.4599 H 3.7061044 v 1.067036 H 3.0652118 v -2.49814 h 1.7901374 z"
         style="font-style:normal;font-variant:normal;font-weight:bold;font-stretch:normal;font-size:3.4359901px;font-family:sans-serif;-inkscape-font-specification:'sans-serif Bold';fill:#d6d6d6;fill-opacity:1;stroke-width:0.4206405"
         id="path4803" />
      <path
         d="M 7.0900849,28.511982 H 5.9408402 v 0.464731 H 7.0061984 V 29.4599 H 5.9408402 v 1.067036 H 5.2999475 v -2.49814 h 1.7901374 z"
         style="font-style:normal;font-variant:normal;font-weight:bold;font-stretch:normal;font-size:3.4359901px;font-family:sans-serif;-inkscape-font-specification:'sans-serif Bold';fill:#d6d6d6;fill-opacity:1;stroke-width:0.4206405"
         id="path4805" />
      <path
         d="m 9.5345366,29.741758 q 0,0.369101 -0.3137354,0.600627 -0.3120577,0.229849 -0.8489312,0.229849 -0.3103799,0 -0.5419066,-0.05369 -0.229849,-0.05537 -0.4311765,-0.139252 v -0.598949 h 0.070465 q 0.1996498,0.159384 0.4462761,0.244948 0.248304,0.08557 0.4764752,0.08557 0.05872,0 0.1543511,-0.01007 0.095631,-0.01007 0.1560288,-0.03355 0.07382,-0.0302 0.1207966,-0.0755 0.048654,-0.0453 0.048654,-0.134219 0,-0.08221 -0.070465,-0.140929 -0.068787,-0.0604 -0.2030053,-0.09227 -0.1409293,-0.03355 -0.2986358,-0.06208 -0.1560289,-0.0302 -0.2936027,-0.0755 -0.3154132,-0.102341 -0.4546647,-0.276825 -0.1375738,-0.176162 -0.1375738,-0.43621 0,-0.348968 0.3120576,-0.56875 0.3137355,-0.22146 0.8053102,-0.22146 0.2466263,0 0.4865416,0.04865 0.241593,0.04698 0.4177546,0.119119 v 0.575461 H 9.3667636 Q 9.215768,28.605935 8.9959854,28.525404 q -0.2181048,-0.08221 -0.446276,-0.08221 -0.080531,0 -0.1610621,0.01175 -0.078853,0.01007 -0.1526734,0.04026 -0.065431,0.02517 -0.1124079,0.07718 -0.046976,0.05033 -0.046976,0.115763 0,0.09899 0.075498,0.152673 0.075498,0.05201 0.285214,0.09563 0.1375738,0.02852 0.2634035,0.05537 0.1275075,0.02684 0.2734699,0.07382 0.2868918,0.09395 0.4227879,0.256693 0.1375738,0.161062 0.1375738,0.419432 z"
         style="font-style:normal;font-variant:normal;font-weight:bold;font-stretch:normal;font-size:3.4359901px;font-family:sans-serif;-inkscape-font-specification:'sans-serif Bold';fill:#d6d6d6;fill-opacity:1;stroke-width:0.4206405"
         id="path4807" />
      <path
         d="M 11.784372,30.526936 H 9.9774578 v -2.49814 h 1.8069142 v 0.483186 H 10.61835 v 0.431177 h 1.082136 v 0.483186 H 10.61835 v 0.617404 h 1.166022 z"
         style="font-style:normal;font-variant:normal;font-weight:bold;font-stretch:normal;font-size:3.4359901px;font-family:sans-serif;-inkscape-font-specification:'sans-serif Bold';fill:#d6d6d6;fill-opacity:1;stroke-width:0.4206405"
         id="path4809" />
      <path
         d="M 14.280834,28.511982 H 13.50069 v 2.014954 h -0.644248 v -2.014954 h -0.780144 v -0.483186 h 2.204536 z"
         style="font-style:normal;font-variant:normal;font-weight:bold;font-stretch:normal;font-size:3.4359901px;font-family:sans-serif;-inkscape-font-specification:'sans-serif Bold';fill:#d6d6d6;fill-opacity:1;stroke-width:0.4206405"
         id="path4811" />
    </g>
    <g
       aria-label="IN"
       transform="scale(1.6253826,0.61523974)"
       style="font-style:normal;font-variant:normal;font-weight:bold;font-stretch:normal;font-size:15.39149284px;line-height:1.25;font-family:sans-serif;-inkscape-font-specification:'sans-serif Bold';letter-spacing:0px;word-spacing:0px;fill:#d6d6d6;fill-opacity:1;stroke:none;stroke-width:0.38478729"
       id="text70-3-4">
      <path
         d="M 6.8322271,97.580063 H 5.0846515 V 97.05098 H 5.573652 V 95.12504 H 5.0846515 V 94.595957 H 6.8322271 V 95.12504 H 6.3432266 v 1.92594 h 0.4890005 z"
         style="font-style:normal;font-variant:normal;font-weight:bold;font-stretch:normal;font-size:4.10439777px;font-family:sans-serif;-inkscape-font-specification:'sans-serif Bold';fill:#d6d6d6;fill-opacity:1;stroke-width:0.38478729"
         id="path4814" />
      <path
         d="M 10.177071,97.580063 H 9.4355535 L 8.168962,95.531872 v 2.048191 H 7.4635187 v -2.984106 h 0.9198821 l 1.0882266,1.709498 v -1.709498 h 0.7054436 z"
         style="font-style:normal;font-variant:normal;font-weight:bold;font-stretch:normal;font-size:4.10439777px;font-family:sans-serif;-inkscape-font-specification:'sans-serif Bold';fill:#d6d6d6;fill-opacity:1;stroke-width:0.38478729"
         id="path4816" />
    </g>
    <g
       aria-label="OUT"
       transform="scale(1.1596995,0.86229233)"
       style="font-style:normal;font-variant:normal;font-weight:bold;font-stretch:normal;font-size:13.69448471px;line-height:1.25;font-family:sans-serif;-inkscape-font-specification:'sans-serif Bold';letter-spacing:0px;word-spacing:0px;fill:#d6d6d6;fill-opacity:1;stroke:none;stroke-width:0.34236211"
       id="text70-3-1">
      <path
         d="m 9.3667458,92.807174 q 0,0.634796 -0.3637598,1.009255 -0.3637597,0.372675 -1.0056886,0.372675 -0.6401458,0 -1.0039056,-0.372675 -0.3637597,-0.374459 -0.3637597,-1.009255 0,-0.640146 0.3637597,-1.011038 0.3637598,-0.372675 1.0039056,-0.372675 0.6383626,0 1.0039055,0.372675 0.3655429,0.370892 0.3655429,1.011038 z m -0.9076162,0.672242 q 0.099856,-0.121253 0.1480003,-0.285301 0.048145,-0.165832 0.048145,-0.388724 0,-0.23894 -0.055277,-0.406555 -0.055277,-0.167615 -0.144434,-0.271037 -0.09094,-0.106988 -0.21041,-0.155133 -0.117687,-0.04814 -0.2460728,-0.04814 -0.1301689,0 -0.2460728,0.04636 -0.1141207,0.04636 -0.21041,0.15335 -0.089157,0.09986 -0.1462171,0.276386 -0.055277,0.174747 -0.055277,0.406555 0,0.237157 0.053494,0.404772 0.055277,0.165832 0.144434,0.271037 0.089157,0.105205 0.2086269,0.155132 0.1194701,0.04993 0.2514222,0.04993 0.1319521,0 0.2514222,-0.04993 0.1194701,-0.05171 0.2086269,-0.158699 z"
         style="font-style:normal;font-variant:normal;font-weight:bold;font-stretch:normal;font-size:3.65186238px;font-family:sans-serif;-inkscape-font-specification:'sans-serif Bold';fill:#d6d6d6;fill-opacity:1;stroke-width:0.34236211"
         id="path4819" />
      <path
         d="m 12.212631,93.172717 q 0,0.492145 -0.299567,0.754266 -0.299567,0.262121 -0.882652,0.262121 -0.583086,0 -0.882653,-0.262121 Q 9.8499757,93.664862 9.8499757,93.1745 v -1.695762 h 0.6882903 v 1.656533 q 0,0.276386 0.115904,0.411904 0.115904,0.135519 0.376242,0.135519 0.256771,0 0.374458,-0.130169 0.11947,-0.130169 0.11947,-0.417254 v -1.656533 h 0.688291 z"
         style="font-style:normal;font-variant:normal;font-weight:bold;font-stretch:normal;font-size:3.65186238px;font-family:sans-serif;-inkscape-font-specification:'sans-serif Bold';fill:#d6d6d6;fill-opacity:1;stroke-width:0.34236211"
         id="path4821" />
      <path
         d="m 14.931913,91.992281 h -0.829158 v 2.141546 h -0.684724 v -2.141546 h -0.829159 v -0.513543 h 2.343041 z"
         style="font-style:normal;font-variant:normal;font-weight:bold;font-stretch:normal;font-size:3.65186238px;font-family:sans-serif;-inkscape-font-specification:'sans-serif Bold';fill:#d6d6d6;fill-opacity:1;stroke-width:0.34236211"
         id="path4823" />
    </g>
    <g
       aria-label="GTNGTNGTNGTN"
       transform="scale(1.0995696,0.90944678)"
       style="font-style:normal;font-variant:normal;font-weight:bold;font-stretch:normal;font-size:8.81257057px;line-height:1.25;font-family:sans-serif;-inkscape-font-specification:'sans-serif Bold';letter-spacing:0px;word-spacing:0px;fill:#d6d6d6;fill-opacity:1;stroke:none;stroke-width:0.22031422"
       id="text70-3-2">
      <path
         d="m 1.6110478,102.89309 q -0.114747,0.0447 -0.3040795,0.0895 -0.1893326,0.0436 -0.37751763,0.0436 -0.43603858,0 -0.68274463,-0.23638 Q 0,102.55229 0,102.13461 q 0,-0.39817 0.24900098,-0.64143 0.24900099,-0.24442 0.69421933,-0.24442 0.16867809,0 0.32129159,0.031 0.1526135,0.0298 0.3396511,0.12048 v 0.40047 h -0.049341 q -0.032129,-0.0241 -0.094093,-0.0677 -0.061963,-0.0448 -0.1193369,-0.0757 -0.066553,-0.0367 -0.1560559,-0.0631 -0.088355,-0.0264 -0.1881851,-0.0264 -0.11704193,0 -0.21228194,0.0344 -0.09524,0.0344 -0.17097303,0.10557 -0.0722906,0.0688 -0.11474699,0.17556 -0.0413089,0.10557 -0.0413089,0.24442 0,0.28342 0.15031856,0.43374 0.15031857,0.15032 0.44407092,0.15032 0.025244,0 0.055079,-0.001 0.030982,-0.001 0.056226,-0.003 v -0.33506 H 0.82273597 V 102.0497 H 1.6110478 Z"
         style="font-style:normal;font-variant:normal;font-weight:bold;font-stretch:normal;font-size:2.3500185px;font-family:sans-serif;-inkscape-font-specification:'sans-serif Bold';fill:#d6d6d6;fill-opacity:1;stroke-width:0.22031422"
         id="path4826" />
      <path
         d="M 3.3414326,101.61251 H 2.807859 v 1.37811 H 2.3672306 v -1.37811 H 1.833657 v -0.33047 h 1.5077756 z"
         style="font-style:normal;font-variant:normal;font-weight:bold;font-stretch:normal;font-size:2.3500185px;font-family:sans-serif;-inkscape-font-specification:'sans-serif Bold';fill:#d6d6d6;fill-opacity:1;stroke-width:0.22031422"
         id="path4828" />
      <path
         d="M 5.1601723,102.99062 H 4.7356084 l -0.725201,-1.17271 v 1.17271 H 3.606498 v -1.70858 h 0.5266887 l 0.6230762,0.97879 v -0.97879 h 0.4039094 z"
         style="font-style:normal;font-variant:normal;font-weight:bold;font-stretch:normal;font-size:2.3500185px;font-family:sans-serif;-inkscape-font-specification:'sans-serif Bold';fill:#d6d6d6;fill-opacity:1;stroke-width:0.22031422"
         id="path4830" />
      <path
         d="m 7.1097241,102.89309 q -0.114747,0.0447 -0.3040795,0.0895 -0.1893326,0.0436 -0.3775176,0.0436 -0.4360386,0 -0.6827447,-0.23638 -0.246706,-0.23753 -0.246706,-0.65521 0,-0.39817 0.249001,-0.64143 0.249001,-0.24442 0.6942193,-0.24442 0.1686781,0 0.3212916,0.031 0.1526135,0.0298 0.3396511,0.12048 v 0.40047 h -0.049341 q -0.032129,-0.0241 -0.094092,-0.0677 -0.061963,-0.0448 -0.1193369,-0.0757 -0.066553,-0.0367 -0.1560559,-0.0631 -0.088355,-0.0264 -0.1881851,-0.0264 -0.1170419,0 -0.2122819,0.0344 -0.09524,0.0344 -0.1709731,0.10557 -0.072291,0.0688 -0.114747,0.17556 -0.041309,0.10557 -0.041309,0.24442 0,0.28342 0.1503186,0.43374 0.1503185,0.15032 0.4440709,0.15032 0.025244,0 0.055078,-0.001 0.030982,-0.001 0.056226,-0.003 v -0.33506 H 6.3214123 v -0.32244 h 0.7883118 z"
         style="font-style:normal;font-variant:normal;font-weight:bold;font-stretch:normal;font-size:2.3500185px;font-family:sans-serif;-inkscape-font-specification:'sans-serif Bold';fill:#d6d6d6;fill-opacity:1;stroke-width:0.22031422"
         id="path4832" />
      <path
         d="M 8.8401086,101.61251 H 8.3065351 v 1.37811 H 7.8659066 v -1.37811 H 7.3323331 v -0.33047 h 1.5077755 z"
         style="font-style:normal;font-variant:normal;font-weight:bold;font-stretch:normal;font-size:2.3500185px;font-family:sans-serif;-inkscape-font-specification:'sans-serif Bold';fill:#d6d6d6;fill-opacity:1;stroke-width:0.22031422"
         id="path4834" />
      <path
         d="m 10.658849,102.99062 h -0.424564 l -0.7252013,-1.17271 v 1.17271 H 9.1051743 v -1.70858 H 9.631863 l 0.623076,0.97879 v -0.97879 h 0.40391 z"
         style="font-style:normal;font-variant:normal;font-weight:bold;font-stretch:normal;font-size:2.3500185px;font-family:sans-serif;-inkscape-font-specification:'sans-serif Bold';fill:#d6d6d6;fill-opacity:1;stroke-width:0.22031422"
         id="path4836" />
      <path
         d="m 12.6084,102.89309 q -0.114747,0.0447 -0.304079,0.0895 -0.189333,0.0436 -0.377518,0.0436 -0.436038,0 -0.682744,-0.23638 -0.246706,-0.23753 -0.246706,-0.65521 0,-0.39817 0.249001,-0.64143 0.249001,-0.24442 0.694219,-0.24442 0.168678,0 0.321292,0.031 0.152613,0.0298 0.339651,0.12048 v 0.40047 h -0.04934 q -0.03213,-0.0241 -0.09409,-0.0677 -0.06196,-0.0448 -0.119337,-0.0757 -0.06655,-0.0367 -0.156056,-0.0631 -0.08835,-0.0264 -0.188185,-0.0264 -0.117042,0 -0.212282,0.0344 -0.09524,0.0344 -0.170973,0.10557 -0.07229,0.0688 -0.114747,0.17556 -0.04131,0.10557 -0.04131,0.24442 0,0.28342 0.150319,0.43374 0.150318,0.15032 0.444071,0.15032 0.02524,0 0.05508,-0.001 0.03098,-0.001 0.05623,-0.003 v -0.33506 H 11.820089 V 102.0497 H 12.6084 Z"
         style="font-style:normal;font-variant:normal;font-weight:bold;font-stretch:normal;font-size:2.3500185px;font-family:sans-serif;-inkscape-font-specification:'sans-serif Bold';fill:#d6d6d6;fill-opacity:1;stroke-width:0.22031422"
         id="path4838" />
      <path
         d="m 14.338784,101.61251 h -0.533573 v 1.37811 h -0.440629 v -1.37811 h -0.533573 v -0.33047 h 1.507775 z"
         style="font-style:normal;font-variant:normal;font-weight:bold;font-stretch:normal;font-size:2.3500185px;font-family:sans-serif;-inkscape-font-specification:'sans-serif Bold';fill:#d6d6d6;fill-opacity:1;stroke-width:0.22031422"
         id="path4840" />
      <path
         d="m 16.157525,102.99062 h -0.424564 l -0.725201,-1.17271 v 1.17271 h -0.403909 v -1.70858 h 0.526688 l 0.623076,0.97879 v -0.97879 h 0.40391 z"
         style="font-style:normal;font-variant:normal;font-weight:bold;font-stretch:normal;font-size:2.3500185px;font-family:sans-serif;-inkscape-font-specification:'sans-serif Bold';fill:#d6d6d6;fill-opacity:1;stroke-width:0.22031422"
         id="path4842" />
      <path
         d="m 18.107077,102.89309 q -0.114747,0.0447 -0.30408,0.0895 -0.189332,0.0436 -0.377517,0.0436 -0.436039,0 -0.682745,-0.23638 -0.246706,-0.23753 -0.246706,-0.65521 0,-0.39817 0.249001,-0.64143 0.249001,-0.24442 0.694219,-0.24442 0.168678,0 0.321292,0.031 0.152613,0.0298 0.339651,0.12048 v 0.40047 h -0.04934 q -0.03213,-0.0241 -0.09409,-0.0677 -0.06196,-0.0448 -0.119337,-0.0757 -0.06655,-0.0367 -0.156056,-0.0631 -0.08835,-0.0264 -0.188185,-0.0264 -0.117042,0 -0.212282,0.0344 -0.09524,0.0344 -0.170973,0.10557 -0.07229,0.0688 -0.114747,0.17556 -0.04131,0.10557 -0.04131,0.24442 0,0.28342 0.150319,0.43374 0.150319,0.15032 0.444071,0.15032 0.02524,0 0.05508,-0.001 0.03098,-0.001 0.05623,-0.003 v -0.33506 h -0.340798 v -0.32244 h 0.788312 z"
         style="font-style:normal;font-variant:normal;font-weight:bold;font-stretch:normal;font-size:2.3500185px;font-family:sans-serif;-inkscape-font-specification:'sans-serif Bold';fill:#d6d6d6;fill-opacity:1;stroke-width:0.22031422"
         id="path4844" />
      <path
         d="m 19.837462,101.61251 h -0.533574 v 1.37811 H 18.86326 v -1.37811 h -0.533574 v -0.33047 h 1.507776 z"
         style="font-style:normal;font-variant:normal;font-weight:bold;font-stretch:normal;font-size:2.3500185px;font-family:sans-serif;-inkscape-font-specification:'sans-serif Bold';fill:#d6d6d6;fill-opacity:1;stroke-width:0.22031422"
         id="path4846" />
      <path
         d="m 21.656201,102.99062 h -0.424564 l -0.725201,-1.17271 v 1.17271 h -0.403909 v -1.70858 h 0.526689 l 0.623076,0.97879 v -0.97879 h 0.403909 z"
         style="font-style:normal;font-variant:normal;font-weight:bold;font-stretch:normal;font-size:2.3500185px;font-family:sans-serif;-inkscape-font-specification:'sans-serif Bold';fill:#d6d6d6;fill-opacity:1;stroke-width:0.22031422"
         id="path4848" />
    </g>
    <g
       aria-label="AMOUNT"
       transform="scale(0.71806905,1.3926237)"
       style="font-style:normal;font-variant:normal;font-weight:bold;font-stretch:normal;font-size:15.19912815px;line-height:1.25;font-family:sans-serif;-inkscape-font-specification:'sans-serif Bold';letter-spacing:0px;word-spacing:0px;fill:#d6d6d6;fill-opacity:1;stroke:none;stroke-width:0.37997818"
       id="text70-3-5">
      <path
         d="m 20.338805,27.699657 h -0.601672 l -0.156102,-0.456179 h -0.836582 l -0.156101,0.456179 h -0.586517 l 0.833551,-2.256649 h 0.669872 z m -0.89872,-0.869924 -0.277345,-0.809302 -0.277345,0.809302 z"
         style="font-style:normal;font-variant:normal;font-weight:bold;font-stretch:normal;font-size:3.10384083px;font-family:sans-serif;-inkscape-font-specification:'sans-serif Bold';fill:#d6d6d6;fill-opacity:1;stroke-width:0.37997818"
         id="path4851" />
      <path
         d="m 23.031932,27.699657 h -0.578939 v -1.511 l -0.418291,0.980559 h -0.40162 l -0.418291,-0.980559 v 1.511 h -0.548628 v -2.256649 h 0.675934 l 0.507709,1.132113 0.506192,-1.132113 h 0.675934 z"
         style="font-style:normal;font-variant:normal;font-weight:bold;font-stretch:normal;font-size:3.10384083px;font-family:sans-serif;-inkscape-font-specification:'sans-serif Bold';fill:#d6d6d6;fill-opacity:1;stroke-width:0.37997818"
         id="path4853" />
      <path
         d="m 25.800837,26.57209 q 0,0.539535 -0.309171,0.8578 -0.309172,0.316749 -0.854769,0.316749 -0.544082,0 -0.853253,-0.316749 -0.309172,-0.318265 -0.309172,-0.8578 0,-0.544081 0.309172,-0.859315 0.309171,-0.316749 0.853253,-0.316749 0.542566,0 0.853253,0.316749 0.310687,0.315234 0.310687,0.859315 z m -0.771413,0.571362 q 0.08487,-0.103058 0.12579,-0.242488 0.04092,-0.140946 0.04092,-0.330389 0,-0.203084 -0.04698,-0.345545 -0.04698,-0.142462 -0.122759,-0.230363 -0.07729,-0.09093 -0.178835,-0.131853 -0.100026,-0.04092 -0.209146,-0.04092 -0.110634,0 -0.209145,0.0394 -0.09699,0.0394 -0.178835,0.130337 -0.07578,0.08487 -0.124274,0.234909 -0.04698,0.148524 -0.04698,0.345545 0,0.201568 0.04547,0.344029 0.04698,0.140946 0.122759,0.230364 0.07578,0.08942 0.177319,0.131852 0.101542,0.04244 0.213692,0.04244 0.112151,0 0.213693,-0.04244 0.101541,-0.04395 0.177319,-0.134883 z"
         style="font-style:normal;font-variant:normal;font-weight:bold;font-stretch:normal;font-size:3.10384083px;font-family:sans-serif;-inkscape-font-specification:'sans-serif Bold';fill:#d6d6d6;fill-opacity:1;stroke-width:0.37997818"
         id="path4855" />
      <path
         d="m 28.219651,26.882777 q 0,0.418292 -0.254612,0.641077 -0.254612,0.222785 -0.750196,0.222785 -0.495584,0 -0.750196,-0.222785 -0.253096,-0.222785 -0.253096,-0.639561 v -1.441285 h 0.585001 v 1.407943 q 0,0.23491 0.09851,0.350091 0.09851,0.115182 0.31978,0.115182 0.218239,0 0.318265,-0.110635 0.101542,-0.110635 0.101542,-0.354638 v -1.407943 h 0.585001 z"
         style="font-style:normal;font-variant:normal;font-weight:bold;font-stretch:normal;font-size:3.10384083px;font-family:sans-serif;-inkscape-font-specification:'sans-serif Bold';fill:#d6d6d6;fill-opacity:1;stroke-width:0.37997818"
         id="path4857" />
      <path
         d="m 30.817299,27.699657 h -0.560753 l -0.957825,-1.548889 v 1.548889 h -0.533473 v -2.256649 h 0.695636 l 0.822942,1.292761 v -1.292761 h 0.533473 z"
         style="font-style:normal;font-variant:normal;font-weight:bold;font-stretch:normal;font-size:3.10384083px;font-family:sans-serif;-inkscape-font-specification:'sans-serif Bold';fill:#d6d6d6;fill-opacity:1;stroke-width:0.37997818"
         id="path4859" />
      <path
         d="m 33.161851,25.879485 h -0.70473 v 1.820172 h -0.58197 v -1.820172 h -0.70473 v -0.436477 h 1.99143 z"
         style="font-style:normal;font-variant:normal;font-weight:bold;font-stretch:normal;font-size:3.10384083px;font-family:sans-serif;-inkscape-font-specification:'sans-serif Bold';fill:#d6d6d6;fill-opacity:1;stroke-width:0.37997818"
         id="path4861" />
    </g>
  </g>
</svg>
